<svg width="24" height="24" viewBox="0 0 24 24" fill="none" xmlns="http://www.w3.org/2000/svg">
<path fill-rule="evenodd" clip-rule="evenodd" d="M19 4.5H5C4.72386 4.5 4.5 4.72386 4.5 5V19C4.5 19.2761 4.72386 19.5 5 19.5H19C19.2761 19.5 19.5 19.2761 19.5 19V5C19.5 4.72386 19.2761 4.5 19 4.5ZM5 3C3.89543 3 3 3.89543 3 5V19C3 20.1046 3.89543 21 5 21H19C20.1046 21 21 20.1046 21 19V5C21 3.89543 20.1046 3 19 3H5Z" fill="#AEAEB2"/>
<path fill-rule="evenodd" clip-rule="evenodd" d="M11.9999 16.25C11.5097 16.25 10.9491 16.0472 10.6068 15.5508L7.50385 11.0508C7.14053 10.5239 7.19089 9.90311 7.50385 9.44925C7.80565 9.01157 8.32563 8.75 8.89702 8.75H15.1029C15.6743 8.75 16.1942 9.01157 16.496 9.44925C16.809 9.90311 16.8594 10.5239 16.496 11.0508L13.3931 15.5508C13.0508 16.0472 12.4902 16.25 11.9999 16.25ZM11.9999 14.75C12.113 14.75 12.1558 14.7028 12.1582 14.6992L15.2129 10.2692C15.188 10.2589 15.1522 10.25 15.1029 10.25H8.89702C8.84766 10.25 8.81189 10.2589 8.78699 10.2692L11.8417 14.6992C11.8441 14.7028 11.8869 14.75 11.9999 14.75Z" fill="#AEAEB2"/>
</svg>
