<svg width="24" height="24" viewBox="0 0 24 24" fill="none" xmlns="http://www.w3.org/2000/svg">
<path fill-rule="evenodd" clip-rule="evenodd" d="M5 4.75C4.30964 4.75 3.75 5.30964 3.75 6V18C3.75 18.6904 4.30964 19.25 5 19.25H19C19.6904 19.25 20.25 18.6904 20.25 18V9C20.25 8.30964 19.6904 7.75 19 7.75H13.3284C12.5991 7.75 11.8996 7.46027 11.3839 6.94454L9.55546 5.11612C9.32104 4.8817 9.00309 4.75 8.67157 4.75H5ZM2.25 6C2.25 4.48122 3.48122 3.25 5 3.25H8.67157C9.40092 3.25 10.1004 3.53973 10.6161 4.05546L12.4445 5.88388C12.679 6.1183 12.9969 6.25 13.3284 6.25H19C20.5188 6.25 21.75 7.48122 21.75 9V18C21.75 19.5188 20.5188 20.75 19 20.75H5C3.48122 20.75 2.25 19.5188 2.25 18V6Z" fill="#AEAEB2"/>
<path fill-rule="evenodd" clip-rule="evenodd" d="M15.5303 13.5303C15.2374 13.8232 14.7626 13.8232 14.4697 13.5303L12.1768 11.2374C12.0791 11.1398 11.9209 11.1398 11.8232 11.2374L9.53033 13.5303C9.23744 13.8232 8.76256 13.8232 8.46967 13.5303C8.17678 13.2374 8.17678 12.7626 8.46967 12.4697L10.7626 10.1768C11.446 9.49336 12.554 9.49336 13.2374 10.1768L15.5303 12.4697C15.8232 12.7626 15.8232 13.2374 15.5303 13.5303Z" fill="#AEAEB2"/>
<path fill-rule="evenodd" clip-rule="evenodd" d="M12 16.75C11.5858 16.75 11.25 16.4142 11.25 16L11.25 10.75C11.25 10.3358 11.5858 10 12 10C12.4142 10 12.75 10.3358 12.75 10.75L12.75 16C12.75 16.4142 12.4142 16.75 12 16.75Z" fill="#AEAEB2"/>
</svg>
