<svg width="24" height="24" viewBox="0 0 24 24" fill="none" xmlns="http://www.w3.org/2000/svg">
<rect x="1.5" y="11.25" width="5" height="1.5" rx="0.75" fill="#AEAEB2"/>
<rect x="17.5" y="11.25" width="5" height="1.5" rx="0.75" fill="#AEAEB2"/>
<rect x="10" y="11.25" width="4" height="1.5" rx="0.75" fill="#AEAEB2"/>
<path fill-rule="evenodd" clip-rule="evenodd" d="M6.5 12C6.5 12.8284 7.17157 13.5 8 13.5C8.82843 13.5 9.5 12.8284 9.5 12C9.5 11.1716 8.82843 10.5 8 10.5C7.17157 10.5 6.5 11.1716 6.5 12ZM8 9C6.34315 9 5 10.3431 5 12C5 13.6569 6.34315 15 8 15C9.65685 15 11 13.6569 11 12C11 10.3431 9.65685 9 8 9Z" fill="#AEAEB2"/>
<path fill-rule="evenodd" clip-rule="evenodd" d="M14.5 12C14.5 12.8284 15.1716 13.5 16 13.5C16.8284 13.5 17.5 12.8284 17.5 12C17.5 11.1716 16.8284 10.5 16 10.5C15.1716 10.5 14.5 11.1716 14.5 12ZM16 9C14.3431 9 13 10.3431 13 12C13 13.6569 14.3431 15 16 15C17.6569 15 19 13.6569 19 12C19 10.3431 17.6569 9 16 9Z" fill="#AEAEB2"/>
<circle cx="16" cy="12" r="1" fill="#AEAEB2"/>
</svg>
