<svg width="164" height="20" viewBox="0 0 164 20" fill="none" xmlns="http://www.w3.org/2000/svg">
<g clip-path="url(#clip0_39_128)">
<path d="M18.8196 15.1209L21.7257 20H26.2151L14.8853 1.18038C14.6785 0.82421 14.4346 0.537767 14.1598 0.32893C13.8721 0.11067 13.518 0 13.1072 0C12.6974 0 12.3395 0.110157 12.0437 0.327217C11.7582 0.53674 11.509 0.823867 11.3039 1.17815L0 20H4.27575L12.9744 5.29133L16.9843 12.0241" fill="white"/>
<path d="M32.2654 0.266602H28.5286V20H32.2654V0.266602Z" fill="white"/>
<path d="M65.6182 2.19633C64.9994 1.58695 64.2297 1.10743 63.3303 0.770792C62.4345 0.436208 61.4047 0.266602 60.2695 0.266602H46.4702V20H50.1804V4.00339H60.2695C61.4069 4.00339 62.3029 4.31827 62.9325 4.9393C63.5612 5.55998 63.8801 6.41503 63.8801 7.48046C63.8801 8.52944 63.5607 9.385 62.9308 10.0233C62.3017 10.661 61.4064 10.9843 60.2695 10.9843H52.3091V14.6145H60.2695C61.4059 14.6145 62.4365 14.4355 63.3332 14.0825C64.2326 13.7279 65.0024 13.2253 65.6212 12.5883C66.2398 11.9512 66.7191 11.1816 67.046 10.301C67.3715 9.42406 67.5367 8.43915 67.5367 7.3739C67.5367 6.29065 67.3715 5.30112 67.0458 4.43271C66.7188 3.56087 66.2386 2.80844 65.6182 2.19633V2.19633Z" fill="white"/>
<path d="M73.8552 0.266602H70.1184V20H86.8925V16.2632H73.8552V0.266602Z" fill="white"/>
<path d="M102.22 0.32893C101.932 0.11067 101.578 0 101.167 0C100.757 0 100.4 0.110157 100.104 0.327217C99.8182 0.53674 99.5689 0.823867 99.3639 1.17815L88.0598 20H92.3357L101.034 5.29133L105.044 12.0241H99.3068L97.5027 15.1209H106.88L109.786 20H114.275L102.945 1.18038C102.738 0.82404 102.494 0.537597 102.22 0.32893Z" fill="white"/>
<path d="M135.256 2.17474C135.256 1.55097 135.035 1.06888 134.599 0.741665C134.178 0.426438 133.694 0.266602 133.16 0.266602H116.029V3.84337H129.113L116.533 16.5278C116.039 17.022 115.788 17.5481 115.788 18.0915C115.788 18.7153 116.004 19.1972 116.43 19.5238C116.842 19.8398 117.331 20 117.884 20H135.175V16.4232H121.93L134.511 3.73853C135.005 3.24445 135.256 2.71832 135.256 2.17473V2.17474Z" fill="white"/>
<path d="M151.761 1.18038C151.554 0.82404 151.31 0.537597 151.035 0.32893C150.748 0.11067 150.394 0 149.983 0C149.573 0 149.215 0.110157 148.919 0.327217C148.634 0.53674 148.385 0.823867 148.18 1.17815L136.875 20H141.151L149.85 5.29133L153.86 12.0241H148.123L146.318 15.1209H155.695L158.602 20H163.091L151.761 1.18038Z" fill="white"/>
<path d="M13.1074 16.2021C14.1099 16.2021 14.9226 15.3895 14.9226 14.387C14.9226 13.3845 14.1099 12.5718 13.1074 12.5718C12.1049 12.5718 11.2922 13.3845 11.2922 14.387C11.2922 15.3895 12.1049 16.2021 13.1074 16.2021Z" fill="white"/>
</g>
<defs>
<clipPath id="clip0_39_128">
<rect width="163.091" height="20" fill="white"/>
</clipPath>
</defs>
</svg>
