<svg width="490" height="60" viewBox="0 0 490 60" fill="none" xmlns="http://www.w3.org/2000/svg">
<g clip-path="url(#clip0_39_105)">
<path d="M56.4589 45.3626L65.1771 60H78.6452L44.6559 3.54114C44.0356 2.47263 43.3037 1.6133 42.4793 0.98679C41.6164 0.33201 40.5541 0 39.3216 0C38.0922 0 37.0186 0.33047 36.131 0.98165C35.2747 1.61022 34.5269 2.4716 33.9117 3.53446L0 60H12.8273L38.9233 15.874L50.9529 36.0724" fill="#1C1C1E"/>
<path d="M96.7958 0.799805H85.5854V60.0001H96.7958V0.799805Z" fill="#1C1C1E"/>
<path d="M196.855 6.58898C194.998 4.76085 192.689 3.32229 189.991 2.31237C187.303 1.30862 184.214 0.799805 180.809 0.799805H139.411V60.0001H150.541V12.0102H180.809C184.221 12.0102 186.909 12.9548 188.798 14.8179C190.684 16.6799 191.64 19.2451 191.64 22.4414C191.64 25.5883 190.682 28.155 188.792 30.07C186.905 31.9829 184.219 32.9528 180.809 32.9528H156.927V43.8434H180.809C184.218 43.8434 187.31 43.3064 190 42.2476C192.698 41.1837 195.007 39.6758 196.863 37.7649C198.719 35.8535 200.157 33.5448 201.138 30.9031C202.115 28.2722 202.61 25.3175 202.61 22.1217C202.61 18.872 202.115 15.9034 201.138 13.2981C200.156 10.6826 198.716 8.42532 196.855 6.58897V6.58898Z" fill="#1C1C1E"/>
<path d="M221.566 0.799805H210.355V60.0001H260.678V48.7897H221.566V0.799805Z" fill="#1C1C1E"/>
<path d="M306.659 0.98679C305.796 0.33201 304.734 0 303.501 0C302.272 0 301.198 0.33047 300.311 0.98165C299.454 1.61022 298.707 2.4716 298.091 3.53446L264.179 60H277.007L303.103 15.874L315.133 36.0724H297.92L292.508 45.3626H320.639L329.357 60H342.825L308.836 3.54114C308.215 2.47212 307.482 1.61279 306.659 0.98679V0.98679Z" fill="#1C1C1E"/>
<path d="M405.767 6.52421C405.767 4.6529 405.104 3.20664 403.796 2.22499C402.535 1.27931 401.083 0.799805 399.481 0.799805H348.086V11.5301H387.341L349.6 49.5833C348.117 51.066 347.365 52.6444 347.365 54.2746C347.365 56.1459 348.013 57.5917 349.29 58.5713C350.526 59.5195 351.992 60.0001 353.651 60.0001H405.526V49.2697H365.792L403.533 11.2156C405.015 9.73334 405.767 8.15497 405.767 6.5242V6.52421Z" fill="#1C1C1E"/>
<path d="M455.284 3.54114C454.663 2.47212 453.93 1.61279 453.106 0.98679C452.244 0.33201 451.182 0 449.949 0C448.72 0 447.646 0.33047 446.758 0.98165C445.902 1.61022 445.154 2.4716 444.539 3.53446L410.627 60H423.455L449.551 15.874L461.581 36.0724H444.368L438.956 45.3626H467.086L475.805 60H489.273L455.284 3.54114Z" fill="#1C1C1E"/>
<path d="M39.3225 48.6069C42.33 48.6069 44.768 46.1688 44.768 43.1614C44.768 40.1539 42.33 37.7158 39.3225 37.7158C36.315 37.7158 33.877 40.1539 33.877 43.1614C33.877 46.1688 36.315 48.6069 39.3225 48.6069Z" fill="#1C1C1E"/>
</g>
<defs>
<clipPath id="clip0_39_105">
<rect width="489.273" height="60" fill="white"/>
</clipPath>
</defs>
</svg>
