<svg width="24" height="24" viewBox="0 0 24 24" fill="none" xmlns="http://www.w3.org/2000/svg">
<path fill-rule="evenodd" clip-rule="evenodd" d="M2.25 5C2.25 3.48122 3.48122 2.25 5 2.25H19C20.5188 2.25 21.75 3.48122 21.75 5V19C21.75 20.5188 20.5188 21.75 19 21.75H5C3.48122 21.75 2.25 20.5188 2.25 19V5ZM5 3.75C4.30964 3.75 3.75 4.30964 3.75 5V19C3.75 19.6904 4.30964 20.25 5 20.25H19C19.6904 20.25 20.25 19.6904 20.25 19V5C20.25 4.30964 19.6904 3.75 19 3.75H5Z" fill="#636366"/>
<path fill-rule="evenodd" clip-rule="evenodd" d="M3 9.25C3 8.83579 3.33579 8.5 3.75 8.5H20.25C20.6642 8.5 21 8.83579 21 9.25C21 9.66421 20.6642 10 20.25 10H3.75C3.33579 10 3 9.66421 3 9.25Z" fill="#636366"/>
<path fill-rule="evenodd" clip-rule="evenodd" d="M3 13.25C3 12.8358 3.33579 12.5 3.75 12.5H20.25C20.6642 12.5 21 12.8358 21 13.25C21 13.6642 20.6642 14 20.25 14H3.75C3.33579 14 3 13.6642 3 13.25Z" fill="#636366"/>
<path fill-rule="evenodd" clip-rule="evenodd" d="M3 17.25C3 16.8358 3.33579 16.5 3.75 16.5H20.25C20.6642 16.5 21 16.8358 21 17.25C21 17.6642 20.6642 18 20.25 18H3.75C3.33579 18 3 17.6642 3 17.25Z" fill="#636366"/>
<path fill-rule="evenodd" clip-rule="evenodd" d="M9.25 9C9.66421 9 10 9.33579 10 9.75L10 20.25C10 20.6642 9.66421 21 9.25 21C8.83579 21 8.5 20.6642 8.5 20.25L8.5 9.75C8.5 9.33579 8.83579 9 9.25 9Z" fill="#636366"/>
<path fill-rule="evenodd" clip-rule="evenodd" d="M14.75 9C15.1642 9 15.5 9.33579 15.5 9.75L15.5 20.25C15.5 20.6642 15.1642 21 14.75 21C14.3358 21 14 20.6642 14 20.25L14 9.75C14 9.33579 14.3358 9 14.75 9Z" fill="#636366"/>
</svg>
