<svg width="24" height="24" viewBox="0 0 24 24" fill="none" xmlns="http://www.w3.org/2000/svg">
<path fill-rule="evenodd" clip-rule="evenodd" d="M8.00019 6.25C8.29532 6.25 8.56301 6.42309 8.68413 6.69223L13.1841 16.6922C13.3541 17.07 13.1857 17.514 12.808 17.6839C12.4302 17.8539 11.9862 17.6855 11.8162 17.3078L8.00019 8.82764L4.18413 17.3078C4.01415 17.6855 3.57014 17.8539 3.19241 17.6839C2.81468 17.514 2.64627 17.07 2.81624 16.6922L7.31624 6.69223C7.43736 6.42309 7.70505 6.25 8.00019 6.25Z" fill="#AEAEB2"/>
<path fill-rule="evenodd" clip-rule="evenodd" d="M4.25 14C4.25 13.5858 4.58579 13.25 5 13.25H11C11.4142 13.25 11.75 13.5858 11.75 14C11.75 14.4142 11.4142 14.75 11 14.75H5C4.58579 14.75 4.25 14.4142 4.25 14Z" fill="#AEAEB2"/>
<path fill-rule="evenodd" clip-rule="evenodd" d="M17.5002 9.75C15.9946 9.75 15.3497 10.7785 15.2186 11.2155C15.0995 11.6123 14.6814 11.8374 14.2847 11.7184C13.8879 11.5993 13.6628 11.1812 13.7818 10.7845C14.0507 9.88813 15.1658 8.25 17.5002 8.25C19.8346 8.25 20.9497 9.88813 21.2186 10.7845C21.2395 10.8544 21.2502 10.927 21.2502 11V17C21.2502 17.4142 20.9144 17.75 20.5002 17.75C20.086 17.75 19.7502 17.4142 19.7502 17V11.1246C19.5645 10.6509 18.9093 9.75 17.5002 9.75Z" fill="#AEAEB2"/>
<path fill-rule="evenodd" clip-rule="evenodd" d="M13.75 15C13.75 13.4812 14.9812 12.25 16.5 12.25H19.5C20.4665 12.25 21.25 13.0335 21.25 14V15.2857C21.25 16.6467 20.1467 17.75 18.7857 17.75H16.5C14.9812 17.75 13.75 16.5188 13.75 15ZM16.5 13.75C15.8096 13.75 15.25 14.3096 15.25 15C15.25 15.6904 15.8096 16.25 16.5 16.25H18.7857C19.3183 16.25 19.75 15.8183 19.75 15.2857V14C19.75 13.8619 19.6381 13.75 19.5 13.75H16.5Z" fill="#AEAEB2"/>
</svg>
