<svg width="16" height="17" viewBox="0 0 16 17" fill="none" xmlns="http://www.w3.org/2000/svg">
<path d="M7.08076 1.40058C7.42084 0.589045 8.57916 0.589046 8.91925 1.40059L10.3998 5.14238C10.5432 5.4845 10.8674 5.71826 11.2395 5.74787L15.0826 6.05366C15.9653 6.1239 16.3232 7.21727 15.6507 7.78906L12.7227 10.2784C12.4392 10.5195 12.3153 10.8977 12.402 11.2581L13.2965 14.9802C13.502 15.8351 12.5649 16.5109 11.8091 16.0527L8.51895 14.0581C8.20035 13.865 7.79965 13.865 7.48105 14.0581L4.19086 16.0527C3.43511 16.5109 2.49801 15.8351 2.70349 14.9802L3.59804 11.2581C3.68467 10.8977 3.56084 10.5195 3.27731 10.2784L0.34931 7.78906C-0.323245 7.21726 0.0346951 6.1239 0.917436 6.05366L4.76049 5.74787C5.13263 5.71826 5.4568 5.4845 5.60017 5.14238L7.08076 1.40058Z" fill="white"/>
</svg>
