<svg width="24" height="24" viewBox="0 0 24 24" fill="none" xmlns="http://www.w3.org/2000/svg">
<path fill-rule="evenodd" clip-rule="evenodd" d="M2.25 5C2.25 3.48122 3.48122 2.25 5 2.25H19C20.5188 2.25 21.75 3.48122 21.75 5V19C21.75 20.5188 20.5188 21.75 19 21.75H5C3.48122 21.75 2.25 20.5188 2.25 19V5ZM5 3.75C4.30964 3.75 3.75 4.30964 3.75 5V19C3.75 19.6904 4.30964 20.25 5 20.25H19C19.6904 20.25 20.25 19.6904 20.25 19V5C20.25 4.30964 19.6904 3.75 19 3.75H5Z" fill="#AEAEB2"/>
<path fill-rule="evenodd" clip-rule="evenodd" d="M17.5541 8.49451C17.8332 8.80051 17.8115 9.27488 17.5055 9.55406L10.3868 16.0488L6.4569 11.9224C6.17123 11.6225 6.18281 11.1477 6.48276 10.8621C6.78271 10.5764 7.25744 10.588 7.54311 10.8879L10.4605 13.9512L16.4945 8.44595C16.8005 8.16677 17.2749 8.18851 17.5541 8.49451Z" fill="#AEAEB2"/>
</svg>
