<svg width="20" height="20" viewBox="0 0 20 20" fill="none" xmlns="http://www.w3.org/2000/svg">
<path d="M8.85095 1.5C9.27605 0.485574 10.7239 0.485575 11.1491 1.5L12.9998 6.17724C13.179 6.60489 13.5842 6.89709 14.0494 6.93411L18.8532 7.31634C19.9566 7.40414 20.4041 8.77085 19.5634 9.4856L15.9034 12.5973C15.5489 12.8986 15.3942 13.3714 15.5024 13.8219L16.6206 18.4745C16.8775 19.5432 15.7061 20.3879 14.7614 19.8152L10.6487 17.3219C10.2504 17.0805 9.74956 17.0805 9.35131 17.322L5.23857 19.8152C4.29389 20.3879 3.12252 19.5432 3.37936 18.4745L4.49755 13.8219C4.60583 13.3714 4.45105 12.8986 4.09664 12.5973L0.436637 9.48559C-0.404057 8.77085 0.0433688 7.40414 1.14679 7.31634L5.95061 6.93411C6.41578 6.89709 6.821 6.60489 7.00021 6.17724L8.85095 1.5Z" fill="#C7C7CC"/>
</svg>
