<svg width="328" height="40" viewBox="0 0 328 40" fill="none" xmlns="http://www.w3.org/2000/svg">
<g clip-path="url(#clip0_109_944)">
<path d="M38.5484 30.2417L44.3606 40H53.3393L30.6798 2.36076C30.2662 1.64842 29.7783 1.07553 29.2287 0.65786C28.6534 0.22134 27.9452 0 27.1236 0C26.304 0 25.5882 0.220313 24.9965 0.654433C24.4257 1.07348 23.9271 1.64773 23.517 2.35631L0.90918 40H9.46069L26.858 10.5827L34.8778 24.0482" fill="#007AFF"/>
<path d="M65.4399 0.533203H57.9663V40.0001H65.4399V0.533203Z" fill="#007AFF"/>
<path d="M132.146 4.39266C130.908 3.1739 129.369 2.21486 127.57 1.54158C125.778 0.872416 123.719 0.533203 121.448 0.533203H93.8496V40.0001H101.27V8.00678H121.448C123.723 8.00678 125.515 8.63654 126.774 9.8786C128.032 11.12 128.669 12.8301 128.669 14.9609C128.669 17.0589 128.031 18.77 126.771 20.0467C125.513 21.322 123.722 21.9685 121.448 21.9685H105.527V29.229H121.448C123.721 29.229 125.782 28.8709 127.576 28.1651C129.374 27.4558 130.914 26.4505 132.152 25.1766C133.389 23.9023 134.347 22.3632 135.001 20.6021C135.652 18.8481 135.983 16.8783 135.983 14.7478C135.983 12.5813 135.652 10.6022 135.001 8.86542C134.347 7.12174 133.386 5.61688 132.146 4.39265V4.39266Z" fill="#007AFF"/>
<path d="M148.62 0.533203H141.146V40.0001H174.694V32.5265H148.62V0.533203Z" fill="#007AFF"/>
<path d="M205.348 0.65786C204.773 0.22134 204.065 0 203.244 0C202.424 0 201.708 0.220313 201.116 0.654433C200.546 1.07348 200.047 1.64773 199.637 2.35631L177.029 40H185.581L202.978 10.5827L210.998 24.0482H199.523L195.915 30.2417H214.668L220.481 40H229.459L206.8 2.36076C206.386 1.64808 205.898 1.07519 205.348 0.65786Z" fill="#007AFF"/>
<path d="M271.42 4.34948C271.42 3.10194 270.978 2.13776 270.107 1.48333C269.266 0.852876 268.298 0.533203 267.23 0.533203H232.966V7.68675H259.136L233.976 33.0555C232.987 34.044 232.486 35.0963 232.486 36.1831C232.486 37.4306 232.918 38.3945 233.769 39.0475C234.593 39.6797 235.571 40 236.676 40H271.26V32.8465H244.77L269.931 7.47705C270.919 6.48889 271.42 5.43665 271.42 4.34947V4.34948Z" fill="#007AFF"/>
<path d="M304.432 2.36076C304.018 1.64808 303.529 1.07519 302.98 0.65786C302.405 0.22134 301.697 0 300.875 0C300.056 0 299.34 0.220313 298.748 0.654433C298.177 1.07348 297.679 1.64773 297.269 2.35631L274.661 40H283.213L300.61 10.5827L308.63 24.0482H297.155L293.546 30.2417H312.3L318.113 40H327.091L304.432 2.36076Z" fill="#007AFF"/>
<path d="M27.124 32.4048C29.129 32.4048 30.7544 30.7794 30.7544 28.7744C30.7544 26.7694 29.129 25.144 27.124 25.144C25.119 25.144 23.4937 26.7694 23.4937 28.7744C23.4937 30.7794 25.119 32.4048 27.124 32.4048Z" fill="#007AFF"/>
</g>
<defs>
<clipPath id="clip0_109_944">
<rect width="326.182" height="40" fill="white" transform="translate(0.90918)"/>
</clipPath>
</defs>
</svg>
