<svg width="24" height="24" viewBox="0 0 24 24" fill="none" xmlns="http://www.w3.org/2000/svg">
<path fill-rule="evenodd" clip-rule="evenodd" d="M10.1113 9.08203C9.90411 9.40755 9.85889 9.8413 9.85889 10.2283C9.85889 10.6425 9.5231 10.9783 9.10889 10.9783C8.69467 10.9783 8.35889 10.6425 8.35889 10.2283C8.35889 9.78914 8.39581 8.98376 8.84581 8.27667C9.33692 7.50499 10.2168 7 11.5733 7C12.923 7 13.8317 7.49912 14.3425 8.26207C14.8091 8.95885 14.8654 9.76081 14.7844 10.3071C14.7691 10.496 14.7017 10.6528 14.648 10.7562C14.5818 10.8838 14.4974 11.0034 14.4128 11.1098C14.2432 11.323 14.0187 11.5497 13.7759 11.7736C13.2865 12.2247 12.6472 12.7326 12.0249 13.202C11.399 13.6741 10.7749 14.1186 10.3084 14.4444C10.1344 14.5659 9.98186 14.6712 9.85889 14.7556V15.2609H14.0376C14.4519 15.2609 14.7876 15.5967 14.7876 16.0109C14.7876 16.4251 14.4519 16.7609 14.0376 16.7609H9.10889C8.69467 16.7609 8.35889 16.4251 8.35889 16.0109V14.3587C8.35889 14.1086 8.48352 13.875 8.69123 13.7357C8.69123 13.7357 8.69122 13.7358 8.69123 13.7357L8.70422 13.727L8.7442 13.7C8.77946 13.6762 8.8315 13.6409 8.89792 13.5956C9.0308 13.5049 9.22108 13.3742 9.44959 13.2146C9.90723 12.895 10.5153 12.4618 11.1216 12.0045C11.7315 11.5445 12.3244 11.0715 12.7592 10.6707C12.9784 10.4686 13.139 10.3017 13.2389 10.176C13.2679 10.1396 13.2873 10.1121 13.2997 10.0932C13.343 9.814 13.3052 9.40892 13.0961 9.09662C12.9156 8.82697 12.5236 8.5 11.5733 8.5C10.6296 8.5 10.2773 8.8211 10.1113 9.08203ZM13.3166 10.0654C13.3164 10.0657 13.3162 10.066 13.316 10.0664C13.3188 10.0599 13.3197 10.0594 13.3166 10.0654Z" fill="#AEAEB2"/>
<path fill-rule="evenodd" clip-rule="evenodd" d="M17.5381 9.05477C17.3384 9.3526 17.2935 9.75084 17.2935 10.1156C17.2935 10.5298 16.9577 10.8656 16.5435 10.8656C16.1292 10.8656 15.7935 10.5298 15.7935 10.1156C15.7935 9.69185 15.8311 8.90728 16.2923 8.21944C16.7924 7.47347 17.6753 7 19.0217 7C20.3682 7 21.251 7.47347 21.7512 8.21944C22.2124 8.90728 22.25 9.69185 22.25 10.1156C22.25 10.8933 21.9707 11.6114 21.3612 12.1205C20.7697 12.6145 19.9569 12.837 19.0217 12.837C18.6075 12.837 18.2717 12.5012 18.2717 12.087C18.2717 11.6727 18.6075 11.337 19.0217 11.337C19.7387 11.337 20.165 11.1651 20.3996 10.9692C20.6162 10.7883 20.75 10.5207 20.75 10.1156C20.75 9.75084 20.705 9.3526 20.5053 9.05477C20.3446 8.81507 19.9883 8.5 19.0217 8.5C18.0551 8.5 17.6989 8.81507 17.5381 9.05477Z" fill="#AEAEB2"/>
<path fill-rule="evenodd" clip-rule="evenodd" d="M17.5381 15.1191C17.3384 14.8212 17.2935 14.423 17.2935 14.0582C17.2935 13.644 16.9577 13.3082 16.5435 13.3082C16.1292 13.3082 15.7935 13.644 15.7935 14.0582C15.7935 14.482 15.8311 15.2666 16.2923 15.9544C16.7924 16.7004 17.6753 17.1738 19.0217 17.1738C20.3682 17.1738 21.251 16.7004 21.7512 15.9544C22.2124 15.2666 22.25 14.482 22.25 14.0582C22.25 13.2805 21.9707 12.5624 21.3612 12.0534C20.7697 11.5593 19.9569 11.3369 19.0217 11.3369C18.6075 11.3369 18.2717 11.6727 18.2717 12.0869C18.2717 12.5011 18.6075 12.8369 19.0217 12.8369C19.7387 12.8369 20.165 13.0087 20.3996 13.2046C20.6162 13.3855 20.75 13.6531 20.75 14.0582C20.75 14.423 20.705 14.8212 20.5053 15.1191C20.3446 15.3588 19.9883 15.6738 19.0217 15.6738C18.0551 15.6738 17.6989 15.3588 17.5381 15.1191Z" fill="#AEAEB2"/>
<path fill-rule="evenodd" clip-rule="evenodd" d="M4.89812 7.07792C5.15361 7.20445 5.31526 7.4649 5.31526 7.75V16.0109C5.31526 16.4251 4.97947 16.7609 4.56526 16.7609C4.15104 16.7609 3.81526 16.4251 3.81526 16.0109V9.26432L2.95457 9.92008C2.62509 10.1711 2.1545 10.1075 1.90347 9.77804C1.65243 9.44856 1.71603 8.97796 2.04551 8.72693L4.11072 7.15343C4.3375 6.98065 4.64264 6.95138 4.89812 7.07792Z" fill="#AEAEB2"/>
<path fill-rule="evenodd" clip-rule="evenodd" d="M1.75 16.0107C1.75 15.5965 2.08579 15.2607 2.5 15.2607H6.63043C7.04465 15.2607 7.38043 15.5965 7.38043 16.0107C7.38043 16.425 7.04465 16.7607 6.63043 16.7607H2.5C2.08579 16.7607 1.75 16.425 1.75 16.0107Z" fill="#AEAEB2"/>
</svg>
