<svg width="24" height="24" viewBox="0 0 24 24" fill="none" xmlns="http://www.w3.org/2000/svg">
<path d="M10.8509 2.5C11.2761 1.48557 12.7239 1.48558 13.1491 2.5L14.9998 7.17724C15.179 7.60489 15.5842 7.89709 16.0494 7.93411L20.8532 8.31634C21.9566 8.40414 22.4041 9.77085 21.5634 10.4856L17.9034 13.5973C17.5489 13.8986 17.3942 14.3714 17.5024 14.8219L18.6206 19.4745C18.8775 20.5432 17.7061 21.3879 16.7614 20.8152L12.6487 18.3219C12.2504 18.0805 11.7496 18.0805 11.3513 18.322L7.23857 20.8152C6.29389 21.3879 5.12252 20.5432 5.37936 19.4745L6.49755 14.8219C6.60583 14.3714 6.45105 13.8986 6.09664 13.5973L2.43664 10.4856C1.59594 9.77085 2.04337 8.40414 3.14679 8.31634L7.95061 7.93411C8.41578 7.89709 8.821 7.60489 9.00021 7.17724L10.8509 2.5Z" stroke="#636366" stroke-width="1.5"/>
</svg>
