<svg width="21" height="21" viewBox="0 0 21 21" fill="none" xmlns="http://www.w3.org/2000/svg">
<path fill-rule="evenodd" clip-rule="evenodd" d="M8.75 15.5C12.4779 15.5 15.5 12.4779 15.5 8.75C15.5 5.02208 12.4779 2 8.75 2C5.02208 2 2 5.02208 2 8.75C2 12.4779 5.02208 15.5 8.75 15.5ZM8.75 17.5C13.5825 17.5 17.5 13.5825 17.5 8.75C17.5 3.91751 13.5825 0 8.75 0C3.91751 0 0 3.91751 0 8.75C0 13.5825 3.91751 17.5 8.75 17.5Z" fill="#636366"/>
<rect x="13" y="14.4141" width="2" height="8.12961" rx="1" transform="rotate(-45 13 14.4141)" fill="#636366"/>
</svg>
