<svg width="24" height="24" viewBox="0 0 24 24" fill="none" xmlns="http://www.w3.org/2000/svg">
<path fill-rule="evenodd" clip-rule="evenodd" d="M3.82473 12.238C4.32149 11.1625 5.25082 9.67202 6.55993 8.41624C7.9924 7.04213 9.82285 6 12.0002 6C14.1775 6 16.008 7.04213 17.4405 8.41624C18.7496 9.67201 19.6789 11.1625 20.1756 12.2379C19.6807 13.2269 18.7592 14.596 17.4608 15.7525C16.0332 17.024 14.1966 18 12.0002 18C9.80382 18 7.96714 17.024 6.53958 15.7525C5.24123 14.596 4.31967 13.2269 3.82473 12.238ZM2.30983 11.9569C2.30518 11.9678 2.30078 11.9789 2.29666 11.9901C2.23095 12.1679 2.23221 12.3706 2.31601 12.5572C2.84106 13.7265 3.93455 15.4408 5.54187 16.8725C7.15485 18.3093 9.33169 19.5 12.0002 19.5C12.001 19.5 12.0018 19.5 12.0026 19.5C14.67 19.4993 16.846 18.3088 18.4585 16.8725C20.0638 15.4427 21.1565 13.7309 21.6823 12.5618C21.6873 12.5509 21.692 12.5399 21.6965 12.5288C21.7299 12.4454 21.7473 12.3592 21.75 12.2738C21.7534 12.1699 21.7351 12.0636 21.6924 11.9613C21.1718 10.7128 20.0833 8.87283 18.4788 7.33376C16.8708 5.7912 14.6877 4.5 12.0002 4.5C9.31268 4.5 7.12962 5.7912 5.52155 7.33376C3.91903 8.87099 2.83121 10.7084 2.30983 11.9569Z" fill="#636366"/>
<circle cx="12" cy="11.75" r="3" stroke="#636366" stroke-width="1.5"/>
</svg>
