<svg width="24" height="24" viewBox="0 0 24 24" fill="none" xmlns="http://www.w3.org/2000/svg">
<rect x="1.5" y="7.75" width="12" height="1.5" rx="0.75" fill="#AEAEB2"/>
<rect x="17.5" y="7.75" width="5" height="1.5" rx="0.75" fill="#AEAEB2"/>
<path fill-rule="evenodd" clip-rule="evenodd" d="M14 8.5C14 9.32843 14.6716 10 15.5 10C16.3284 10 17 9.32843 17 8.5C17 7.67157 16.3284 7 15.5 7C14.6716 7 14 7.67157 14 8.5ZM15.5 5.5C13.8431 5.5 12.5 6.84315 12.5 8.5C12.5 10.1569 13.8431 11.5 15.5 11.5C17.1569 11.5 18.5 10.1569 18.5 8.5C18.5 6.84315 17.1569 5.5 15.5 5.5Z" fill="#AEAEB2"/>
<rect x="22.5" y="16.25" width="12" height="1.5" rx="0.75" transform="rotate(-180 22.5 16.25)" fill="#AEAEB2"/>
<rect x="6.5" y="16.25" width="5" height="1.5" rx="0.75" transform="rotate(-180 6.5 16.25)" fill="#AEAEB2"/>
<path fill-rule="evenodd" clip-rule="evenodd" d="M10 15.5C10 14.6716 9.32843 14 8.5 14C7.67157 14 7 14.6716 7 15.5C7 16.3284 7.67157 17 8.5 17C9.32843 17 10 16.3284 10 15.5ZM8.5 18.5C10.1569 18.5 11.5 17.1569 11.5 15.5C11.5 13.8431 10.1569 12.5 8.5 12.5C6.84315 12.5 5.5 13.8431 5.5 15.5C5.5 17.1569 6.84315 18.5 8.5 18.5Z" fill="#AEAEB2"/>
</svg>
