<svg width="24" height="24" viewBox="0 0 24 24" fill="none" xmlns="http://www.w3.org/2000/svg">
<rect x="2" y="4" width="18" height="2" rx="1" fill="#636366"/>
<rect x="2" y="10" width="12" height="2" rx="1" fill="#636366"/>
<rect x="2" y="16" width="8" height="2" rx="1" fill="#636366"/>
<rect x="18" y="9" width="10" height="2" rx="1" transform="rotate(90 18 9)" fill="#636366"/>
<path fill-rule="evenodd" clip-rule="evenodd" d="M12.7929 16.2663C13.1834 15.9112 13.8166 15.9112 14.2071 16.2663L17 18.8053L19.7929 16.2663C20.1834 15.9112 20.8166 15.9112 21.2071 16.2663C21.5976 16.6213 21.5976 17.1969 21.2071 17.5519L17.7071 20.7337C17.3166 21.0888 16.6834 21.0888 16.2929 20.7337L12.7929 17.5519C12.4024 17.1969 12.4024 16.6213 12.7929 16.2663Z" fill="#636366"/>
</svg>
