<svg width="24" height="24" viewBox="0 0 24 24" fill="none" xmlns="http://www.w3.org/2000/svg">
<path fill-rule="evenodd" clip-rule="evenodd" d="M11.9999 20.75C11.4756 20.75 10.8613 20.5512 10.4775 20.0366L6.79279 15.0954C6.37314 14.5327 6.43242 13.8584 6.79279 13.3752C7.13265 12.9194 7.70305 12.6618 8.31521 12.6618L15.6847 12.6618C16.2968 12.6618 16.8672 12.9194 17.2071 13.3752C17.5674 13.8584 17.6267 14.5327 17.2071 15.0954L13.5223 20.0366C13.1386 20.5512 12.5243 20.75 11.9999 20.75ZM11.9999 19.25C12.1921 19.25 12.2942 19.1743 12.3199 19.1399L15.9725 14.2417C15.9272 14.2075 15.8358 14.1618 15.6847 14.1618H8.31521C8.16405 14.1618 8.07268 14.2075 8.02731 14.2417L11.68 19.1399C11.7056 19.1743 11.8078 19.25 11.9999 19.25Z" fill="#AEAEB2"/>
<path fill-rule="evenodd" clip-rule="evenodd" d="M12.0001 3.25C12.5244 3.25 13.1387 3.44878 13.5225 3.96341L17.2072 8.90459C17.6269 9.46734 17.5676 10.1416 17.2072 10.6248C16.8673 11.0806 16.297 11.3382 15.6848 11.3382H8.31535C7.70319 11.3382 7.13279 11.0806 6.79293 10.6248C6.43256 10.1416 6.37328 9.46734 6.79293 8.90459L10.4777 3.96341C10.8614 3.44878 11.4757 3.25 12.0001 3.25ZM12.0001 4.75C11.8079 4.75 11.7058 4.82573 11.6801 4.86012L8.02745 9.75831C8.07282 9.79251 8.16419 9.83824 8.31535 9.83824H15.6848C15.836 9.83824 15.9273 9.79251 15.9727 9.75831L12.32 4.86012C12.2944 4.82573 12.1922 4.75 12.0001 4.75Z" fill="#AEAEB2"/>
</svg>
