<svg width="20" height="20" viewBox="0 0 20 20" fill="none" xmlns="http://www.w3.org/2000/svg">
<path d="M9.04229 2.08317C9.39655 1.23782 10.6031 1.23782 10.9574 2.08317L12.4997 5.98087C12.649 6.33725 12.9867 6.58075 13.3743 6.61159L17.3775 6.93012C18.297 7.00329 18.6699 8.14221 17.9693 8.73783L14.9193 11.3309C14.624 11.582 14.495 11.976 14.5852 12.3514L15.517 16.2286C15.7311 17.1192 14.7549 17.823 13.9677 17.3458L10.5404 15.2681C10.2085 15.0669 9.79114 15.0669 9.45926 15.2681L6.03198 17.3458C5.24474 17.823 4.2686 17.1192 4.48264 16.2286L5.41446 12.3514C5.5047 11.976 5.37571 11.582 5.08037 11.3309L2.03037 8.73783C1.32979 8.14221 1.70264 7.00329 2.62217 6.93012L6.62535 6.61159C7.01299 6.58075 7.35067 6.33725 7.50002 5.98087L9.04229 2.08317Z" fill="#FFC240"/>
</svg>
