<svg width="24" height="24" viewBox="0 0 24 24" fill="none" xmlns="http://www.w3.org/2000/svg">
<path fill-rule="evenodd" clip-rule="evenodd" d="M2.25 5C2.25 3.48122 3.48122 2.25 5 2.25H19C20.5188 2.25 21.75 3.48122 21.75 5V19C21.75 20.5188 20.5188 21.75 19 21.75H5C3.48122 21.75 2.25 20.5188 2.25 19V5ZM5 3.75C4.30964 3.75 3.75 4.30964 3.75 5V19C3.75 19.6904 4.30964 20.25 5 20.25H19C19.6904 20.25 20.25 19.6904 20.25 19V5C20.25 4.30964 19.6904 3.75 19 3.75H5Z" fill="#AEAEB2"/>
<path fill-rule="evenodd" clip-rule="evenodd" d="M7 8C7 7.58579 7.33579 7.25 7.75 7.25H16.25C16.6642 7.25 17 7.58579 17 8C17 8.41421 16.6642 8.75 16.25 8.75H7.75C7.33579 8.75 7 8.41421 7 8Z" fill="#AEAEB2"/>
<path fill-rule="evenodd" clip-rule="evenodd" d="M12 7.25C12.4142 7.25 12.75 7.58579 12.75 8L12.75 16.5C12.75 16.9142 12.4142 17.25 12 17.25C11.5858 17.25 11.25 16.9142 11.25 16.5L11.25 8C11.25 7.58579 11.5858 7.25 12 7.25Z" fill="#AEAEB2"/>
</svg>
