<svg width="28" height="28" viewBox="0 0 28 28" fill="none" xmlns="http://www.w3.org/2000/svg">
<path fill-rule="evenodd" clip-rule="evenodd" d="M4.32366 14.2798C4.90261 13.0086 6.00465 11.2271 7.56669 9.72874C9.25254 8.11157 11.4174 6.875 14.0002 6.875C16.583 6.875 18.7479 8.11157 20.4337 9.72874C21.9957 11.2271 23.0978 13.0085 23.6767 14.2797C23.0995 15.4505 22.0053 17.0895 20.454 18.4712C18.7731 19.9685 16.602 21.125 14.0002 21.125C11.3984 21.125 9.22728 19.9685 7.54633 18.4712C5.99513 17.0895 4.9009 15.4505 4.32366 14.2798ZM2.80996 13.9982C2.80492 14.0101 2.80017 14.0221 2.79574 14.0343C2.73096 14.2115 2.7326 14.4132 2.81601 14.5989C3.42214 15.9487 4.68793 17.9339 6.54863 19.5913C8.41498 21.2537 10.9263 22.625 14.0002 22.625C14.001 22.625 14.0018 22.625 14.0026 22.625C17.0754 22.6243 19.5859 21.2533 21.4517 19.5913C23.3102 17.9358 24.5752 15.9534 25.1822 14.6037C25.1879 14.5913 25.1932 14.5788 25.1982 14.5661C25.2304 14.4843 25.2473 14.3998 25.25 14.3161C25.2534 14.212 25.2351 14.1055 25.1924 14.003C24.5907 12.56 23.3299 10.4284 21.4721 8.64626C19.6106 6.86065 17.0931 5.375 14.0002 5.375C10.9073 5.375 8.38976 6.86065 6.52831 8.64626C4.67254 10.4264 3.41248 12.5553 2.80996 13.9982Z" fill="white"/>
<ellipse cx="14" cy="13.709" rx="3.5" ry="3.5" stroke="white" stroke-width="1.5"/>
</svg>
